<?xml version="1.0" encoding="UTF-8" standalone="no"?>
<svg width="64px" height="59px" viewBox="0 0 64 59" version="1.1" xmlns="http://www.w3.org/2000/svg" xmlns:xlink="http://www.w3.org/1999/xlink" xmlns:sketch="http://www.bohemiancoding.com/sketch/ns">
    <!-- Generator: Sketch 3.3.2 (12043) - http://www.bohemiancoding.com/sketch -->
    <title>man-2</title>
    <desc>Created with Sketch.</desc>
    <defs></defs>
    <g id="Page-1" stroke="none" stroke-width="1" fill="none" fill-rule="evenodd" sketch:type="MSPage">
        <g id="man-2" sketch:type="MSLayerGroup" transform="translate(-713.000000, -205.000000)">
            <g id="Blue" transform="translate(713.000000, 205.000000)" sketch:type="MSShapeGroup">
                <g id="Group">
                    <path d="M60,48 C59.385,46.666 58.302,45.606 56.956,45.018 L42,41 L42,35 L36.894,38.995 C36.326,39.634 35.511,40 34.655,40 L32,40 L29.345,40 C28.489,40 27.674,39.634 27.105,38.995 L22,35 L22,41 L7.042,45.018 C5.698,45.606 4.615,46.666 4,48 L0,59 L32,59 L64,59 L60,48 L60,48 Z" id="Shape" fill="#0C333D"></path>
                    <path d="M49,19.258 C49,18.147 48,17.036 47,17.036 C46,17.036 46,18.147 46,18.147 L46,17.036 C45.982,8.036 44.976,2.036 32,2.036 C19.024,2.036 18.018,8.036 18,17.036 L18,25 L22,35 L27.105,38.995 C27.674,39.634 28.489,40 29.345,40 L32,40 L34.655,40 C35.511,40 36.326,39.634 36.895,38.995 L42,35 L45.193,27.018 C48.039,26.827 49,22.517 49,19.258 L49,19.258 Z" id="Shape" fill="#E1F5FA"></path>
                    <path d="M18,17 L18,18.111 C18,18.111 18,17 17,17 C16,17 15,18.111 15,19.222 C15,22.481 15.961,26.79 18.807,26.982 L22,34.964 L27.105,38.959 C27.674,39.599 28.489,39.964 29.345,39.964 L32,39.964 L32,2 C19.024,2 18.018,8 18,17 L18,17 Z" id="Shape" fill="#FFFFFF"></path>
                    <path d="M46.268,8.391 C48.997,4.495 49,0 49,0 L32,0 L25.134,0 C22.554,0 20.096,1.099 18.375,3.022 C16.654,4.944 15.833,7.508 16.119,10.073 L19.016,27.54 L22,35 L27.104,38.995 C27.674,39.634 28.489,40 29.345,40 L32,40 L34.655,40 C35.511,40 36.326,39.634 36.895,38.995 L42,35 L44.984,27.539 L47.272,10.91 C47.447,10.211 47.29,9.469 46.846,8.901 C46.685,8.694 46.483,8.53 46.268,8.391 L46.268,8.391 Z M45,17.036 L43,27.036 L43,27.067 L40,33.067 L39,33.067 L37.684,29.118 C37.276,27.893 36.129,27.067 34.838,27.067 L32,27.067 L29.162,27.067 C27.871,27.067 26.724,27.893 26.316,29.118 L25,33.067 L24,33.067 L21,27.067 L21,27.036 L19,17.036 L19,8 C19,8 19.011,13.447 32,13.958 C32.638,13.983 33.297,14 34,14 C39.351,14 42.786,12.216 45,9.924 L45,17.036 L45,17.036 Z" id="Shape" fill="#0F6175"></path>
                    <path d="M19.016,27.539 L22,35 L27.104,38.995 C27.674,39.634 28.489,40 29.345,40 L32,40 L32,27.067 L29.162,27.067 C27.871,27.067 26.724,27.893 26.316,29.118 L25,33.067 L24,33.067 L21,27.067 L21,27.036 L19,17.036 L19,8 C19,8 19.011,13.447 32,13.958 L32,0 L25.134,0 C22.554,0 20.096,1.099 18.375,3.022 C16.654,4.944 15.833,7.508 16.119,10.073" id="Shape" fill="#33899E"></path>
                    <path d="M28,30 L36,30 C36,30 36,33 32,33 C28,33 28,30 28,30 L28,30 Z" id="Shape" fill="#E1F5FA"></path>
                    <path d="M38.5,14.625 C36.062,14.625 33.624,16.25 33.624,16.25 L32,16.25 L30.374,16.25 C30.374,16.25 27.937,14.625 25.5,14.625 C21.437,14.625 19,16.25 19,16.25 L19,17.063 L19.812,17.063 C19.812,21.938 21.437,24.375 25.669,24.375 C29.901,24.375 30.781,20.313 30.781,19.186 C30.781,18.059 32,17.875 32,17.875 C32,17.875 33.219,18.059 33.219,19.186 C33.219,20.313 34.099,24.375 38.331,24.375 C42.563,24.375 44.188,21.938 44.188,17.063 L45,17.063 L45,16.25 C45,16.25 42.562,14.625 38.5,14.625 L38.5,14.625 Z" id="Shape" fill="#0C333D"></path>
                    <path d="M25.5,16.25 C23.256,16.25 21.437,17.256 21.437,19.5 C21.437,20.408 21.738,21.243 22.241,21.919 L27.559,16.601 C26.955,16.366 26.253,16.25 25.5,16.25 L25.5,16.25 Z" id="Shape" fill="#33899E"></path>
                    <path d="M38.579,16.25 C36.335,16.25 34.517,17.256 34.517,19.5 C34.517,20.408 34.818,21.243 35.321,21.919 L40.639,16.601 C40.034,16.366 39.331,16.25 38.579,16.25 L38.579,16.25 Z" id="Shape" fill="#33899E"></path>
                </g>
            </g>
        </g>
    </g>
</svg>