<?xml version="1.0" encoding="UTF-8" standalone="no"?>
<svg width="64px" height="61px" viewBox="0 0 64 61" version="1.1" xmlns="http://www.w3.org/2000/svg" xmlns:xlink="http://www.w3.org/1999/xlink" xmlns:sketch="http://www.bohemiancoding.com/sketch/ns">
    <!-- Generator: Sketch 3.3.2 (12043) - http://www.bohemiancoding.com/sketch -->
    <title>man</title>
    <desc>Created with Sketch.</desc>
    <defs></defs>
    <g id="Page-1" stroke="none" stroke-width="1" fill="none" fill-rule="evenodd" sketch:type="MSPage">
        <g id="man" sketch:type="MSLayerGroup" transform="translate(-73.000000, -75.000000)">
            <g id="Blue" transform="translate(73.000000, 75.000000)" sketch:type="MSShapeGroup">
                <g id="Group">
                    <path d="M47,19.036 L45,20.036 L42,10.036 L25,15.036 C25,15.036 26.5,12.929 28,10.036 C20.75,10.036 19,20.036 19,20.036 L18,19.536 L18,27 L22,37 L27.105,40.995 C27.674,41.634 28.489,42 29.345,42 L32,42 L34.655,42 C35.511,42 36.326,41.634 36.895,40.995 L42,37 L45.193,29.018 C48.039,28.827 49,24.517 49,21.258 C49,20.148 48,19.036 47,19.036 L47,19.036 Z" id="Shape" fill="#E1F5FA"></path>
                    <path d="M60,50 C59.385,48.666 58.302,47.606 56.956,47.017 L45,43 L32,43 L19,43 L7.042,47.017 C5.698,47.606 4.615,48.666 4,50 L0,61 L64,61 L60,50 L60,50 Z" id="Shape" fill="#FFFFFF"></path>
                    <path d="M1.078,58.036 L62.922,58.036 L61.831,55.036 L2.169,55.036 L1.078,58.036 Z" id="Shape" fill="#009FC7"></path>
                    <path d="M4,50 L3.623,51.036 L60.377,51.036 L60,50 C59.649,49.24 59.133,48.583 58.516,48.036 L5.484,48.036 C4.867,48.583 4.351,49.24 4,50 L4,50 Z" id="Shape" fill="#009FC7"></path>
                    <path d="M32,53.072 C35.857,53.072 45,52.072 45,46.072 L45,43 L42,43 L42,46.072 C42,46.072 40,50.072 32,50.072 C24,50.072 22,46.072 22,46.072 L22,43 L19,43 L19,46.072 C19,52.072 28.143,53.072 32,53.072 L32,53.072 Z" id="Shape" fill="#00B7E5"></path>
                    <path d="M34.655,42 L32,42 L29.345,42 C28.489,42 27.674,41.634 27.105,40.995 L22,37 L22,46.036 C22,46.036 24,50.036 32,50.036 C40,50.036 42,46.036 42,46.036 L42,37 L36.895,40.995 C36.326,41.634 35.511,42 34.655,42 L34.655,42 Z" id="Shape" fill="#BBE7F2"></path>
                    <path d="M27.105,40.995 L22,37 L22,46.036 C22,46.036 24,50.036 32,50.036 L32,42 L29.345,42 C28.489,42 27.674,41.635 27.105,40.995 L27.105,40.995 Z" id="Shape" fill="#E1F5FA"></path>
                    <path d="M28,10.036 C20.75,10.036 19,20.036 19,20.036 L17,19.036 C16,19.036 15,20.147 15,21.258 C15,24.517 15.961,28.826 18.807,29.018 L22,37 L27.105,40.995 C27.674,41.635 28.489,42 29.345,42 L32,42 L32,12.977 L25,15.036 C25,15.036 26.5,12.929 28,10.036 L28,10.036 Z" id="Shape" fill="#FFFFFF"></path>
                    <path d="M29,21.036 C29,19.932 28.104,19.036 27,19.036 L26.994,19.036 C26.995,19.058 27,19.078 27,19.099 C27,20.202 26.108,21.095 25.006,21.099 C25.039,22.174 25.916,23.037 27,23.037 C28.104,23.036 29,22.141 29,21.036 L29,21.036 Z" id="Shape" fill="#0C333D"></path>
                    <path d="M38.994,21.036 C38.994,19.932 38.098,19.036 36.994,19.036 L36.988,19.036 C36.989,19.057 36.994,19.077 36.994,19.098 C36.994,20.201 36.102,21.094 35,21.098 C35.033,22.173 35.91,23.036 36.994,23.036 C38.098,23.036 38.994,22.141 38.994,21.036 L38.994,21.036 Z" id="Shape" fill="#0C333D"></path>
                    <path d="M27,32.036 L37,32.036 C37,32.036 37,35.036 32,35.036 C27,35.036 27,32.036 27,32.036 L27,32.036 Z" id="Shape" fill="#53BAD4"></path>
                    <path d="M32,0.429 C23.716,0.429 17,6.849 17,15.429 L17,19.036 L19,20.036 C19,20.036 20.75,10.036 28,10.036 C26.5,12.929 25,15.036 25,15.036 L42,10.036 L45,20.036 L47,19.036 L47,15.429 C47,6.849 40.284,0.429 32,0.429 L32,0.429 Z" id="Shape" fill="#0F6175"></path>
                    <path d="M17,15.429 L17,19.036 L19,20.036 C19,20.036 20.75,10.036 28,10.036 C26.5,12.929 25,15.036 25,15.036 L32,12.977 L32,0.429 C23.716,0.429 17,6.849 17,15.429 L17,15.429 Z" id="Shape" fill="#33899E"></path>
                </g>
            </g>
        </g>
    </g>
</svg>