<?xml version="1.0" encoding="UTF-8" standalone="no"?>
<svg width="25px" height="25px" viewBox="0 0 25 25" version="1.1" xmlns="http://www.w3.org/2000/svg" xmlns:xlink="http://www.w3.org/1999/xlink" xmlns:sketch="http://www.bohemiancoding.com/sketch/ns">
    <!-- Generator: Sketch 3.3.2 (12043) - http://www.bohemiancoding.com/sketch -->
    <title>plus</title>
    <desc>Created with Sketch.</desc>
    <defs></defs>
    <g id="Page-1" stroke="none" stroke-width="1" fill="none" fill-rule="evenodd" sketch:type="MSPage">
        <g id="plus" sketch:type="MSLayerGroup" fill="#FFFFFF">
            <path d="M24.9629891,12.4819565 C24.9629891,13.6885326 23.985163,14.6663587 22.7779348,14.6663587 L14.6657609,14.6663587 L14.6657609,22.778913 C14.6657609,23.9858152 13.6876087,24.9636413 12.4811957,24.9633152 C11.8778804,24.9633152 11.3317935,24.7191848 10.9368478,24.3240217 C10.541413,23.9283152 10.2969565,23.3825 10.2972283,22.7795109 L10.2969022,14.6660326 L2.18375,14.6660326 C1.58081522,14.6660326 1.03516304,14.4219022 0.639402174,14.0261413 C0.244619565,13.6313587 0.000326086957,13.0852717 0.000326086957,12.4819565 C1.16894884e-14,11.2755978 0.977826087,10.2975543 2.1848913,10.2975543 L10.2972283,10.2975543 L10.2972283,2.1848913 C10.2972283,0.978152174 11.2755978,0 12.4821196,0 C13.6882065,0.000326086957 14.6657065,0.9775 14.6663587,2.18407609 L14.6663587,10.2975543 L22.7795109,10.2975543 C23.9858152,10.2982065 24.9623913,11.2755978 24.9629891,12.4819565 L24.9629891,12.4819565 Z" id="Shape" sketch:type="MSShapeGroup"></path>
        </g>
    </g>
</svg>