<?xml version="1.0" encoding="UTF-8" standalone="no"?>
<svg width="64px" height="63px" viewBox="0 0 64 63" version="1.1" xmlns="http://www.w3.org/2000/svg" xmlns:xlink="http://www.w3.org/1999/xlink" xmlns:sketch="http://www.bohemiancoding.com/sketch/ns">
    <!-- Generator: Sketch 3.3.2 (12043) - http://www.bohemiancoding.com/sketch -->
    <title>surfer</title>
    <desc>Created with Sketch.</desc>
    <defs></defs>
    <g id="Page-1" stroke="none" stroke-width="1" fill="none" fill-rule="evenodd" sketch:type="MSPage">
        <g id="surfer" sketch:type="MSLayerGroup" transform="translate(-198.000000, -178.000000)">
            <g id="Blue" transform="translate(198.000000, 178.000000)" sketch:type="MSShapeGroup">
                <g id="Group">
                    <path d="M60,52 C59.385,50.667 58.302,49.606 56.956,49.017 L42,45 L42,38.994 L36.895,42.99 C36.326,43.629 35.511,43.994 34.655,43.994 L32,43.994 L29.345,43.994 C28.489,43.994 27.674,43.629 27.105,42.99 L22,38.994 L22,45 L7.042,49.017 C5.698,49.606 4.615,50.667 4,52 L0,63 L32,63 L64,63 L60,52 L60,52 Z" id="Shape" fill="#0F6175"></path>
                    <path d="M2.614,55.812 L0,63 L32,63 L64,63 L61.857,57.106 C55.956,53.494 44.353,51.036 31,51.036 C19.312,51.036 8.971,52.92 2.614,55.812 L2.614,55.812 Z" id="Shape" fill="#009FC7"></path>
                    <path d="M43,45.275 C43,45.011 42.786,44.796 42.521,44.796 C42.257,44.796 42.043,45.01 42.043,45.275 C42.043,47.899 37.102,50.978 33.745,52.685 C33.241,51.735 32.621,51.014 32,51.014 C31.379,51.014 30.759,51.735 30.255,52.686 C26.897,50.98 21.956,47.901 21.956,45.275 C21.956,45.011 21.742,44.796 21.478,44.796 C21.214,44.796 20.999,45.01 20.999,45.275 C20.999,48.613 26.729,51.97 29.852,53.552 C29.413,54.623 29.131,55.789 29.131,56.525 C29.131,58.185 29.132,61.535 32,61.535 C34.868,61.535 34.87,58.184 34.87,56.525 C34.87,55.789 34.587,54.622 34.148,53.551 C37.271,51.97 43,48.613 43,45.275 L43,45.275 Z" id="Shape" fill="#FFFFFF"></path>
                    <circle id="Oval" fill="#00B7E5" cx="32" cy="57.71" r="1.913"></circle>
                    <path d="M47,20.997 C46,20.997 46,22.108 46,22.108 L46,18.994 C45.997,17.347 45.959,15.801 45.822,14.372 C37.268,17.11 24.485,16.946 18.746,11.148 C18.123,13.362 18.006,16.012 18,18.993 L18,28.993 L22,38.993 L27.105,42.989 C27.674,43.628 28.489,43.993 29.345,43.993 L32,43.993 L34.655,43.993 C35.511,43.993 36.326,43.628 36.895,42.989 L42,38.994 L45.206,30.977 C48.041,30.773 49,26.473 49,23.219 C49,22.108 48,20.997 47,20.997 L47,20.997 Z" id="Shape" fill="#E1F5FA"></path>
                    <path d="M18.746,11.149 C18.123,13.363 18.006,16.013 18,18.994 L18,22.108 C18,22.108 18,20.997 17,20.997 C16,20.997 15,22.108 15,23.219 C15,26.473 15.958,30.773 18.793,30.977 L22,38.994 L27.105,42.99 C27.674,43.629 28.489,43.994 29.345,43.994 L32,43.994 L32,16.015 C26.727,15.685 21.763,14.196 18.746,11.149 L18.746,11.149 Z" id="Shape" fill="#FFFFFF"></path>
                    <path d="M29,22.994 C29,21.89 28.104,20.994 27,20.994 C26.998,20.994 26.996,20.995 26.994,20.995 C26.995,21.016 27,21.036 27,21.057 C27,22.16 26.108,23.053 25.006,23.057 C25.039,24.132 25.916,24.995 27,24.995 C28.104,24.994 29,24.099 29,22.994 L29,22.994 Z" id="Shape" fill="#0C333D"></path>
                    <path d="M38.994,22.994 C38.994,21.89 38.098,20.994 36.994,20.994 C36.992,20.994 36.99,20.995 36.988,20.995 C36.989,21.016 36.994,21.036 36.994,21.057 C36.994,22.16 36.102,23.053 35,23.057 C35.033,24.132 35.91,24.995 36.994,24.995 C38.098,24.994 38.994,24.099 38.994,22.994 L38.994,22.994 Z" id="Shape" fill="#0C333D"></path>
                    <path d="M27,32.994 L37,32.994 C37,32.994 37,35.994 32,35.994 C27,35.994 27,32.994 27,32.994 L27,32.994 Z" id="Shape" fill="#53BAD4"></path>
                    <path d="M52,11.261 C50.089,-2.627 19.079,-3.8 18.049,8.489 C16.832,9.175 16,10.464 16,11.961 L16,20.997 C18,21.997 18,22.977 18,24.789 L18,25.961 L20,25.961 L20,12.239 C25.734,16.604 36.153,16.903 44,14.892 L44,25.961 L46,25.961 L46,24.789 C46,22.977 46,21.997 48,20.997 L48,13.573 C49.588,12.906 50.956,12.128 52,11.261 L52,11.261 Z" id="Shape" fill="#0C333D"></path>
                    <path d="M32,0.021 C24.886,0.231 18.507,3.027 18.049,8.488 C16.832,9.175 16,10.464 16,11.961 L16,20.997 C18,21.997 18,22.977 18,24.789 L18,25.961 L20,25.961 L20,12.239 C23.042,14.554 27.405,15.717 32,16.006 L32,0.021 L32,0.021 Z" id="Shape" fill="#0F6175"></path>
                </g>
            </g>
        </g>
    </g>
</svg>