<?xml version="1.0" encoding="UTF-8" standalone="no"?>
<svg width="64px" height="64px" viewBox="0 0 64 64" version="1.1" xmlns="http://www.w3.org/2000/svg" xmlns:xlink="http://www.w3.org/1999/xlink" xmlns:sketch="http://www.bohemiancoding.com/sketch/ns">
    <!-- Generator: Sketch 3.3.2 (12043) - http://www.bohemiancoding.com/sketch -->
    <title>woman</title>
    <desc>Created with Sketch.</desc>
    <defs></defs>
    <g id="Page-1" stroke="none" stroke-width="1" fill="none" fill-rule="evenodd" sketch:type="MSPage">
        <g id="woman" sketch:type="MSLayerGroup" transform="translate(-841.000000, -328.000000)">
            <g id="Blue" transform="translate(841.000000, 328.000000)" sketch:type="MSShapeGroup">
                <g id="Group">
                    <path d="M64,64 L60.409,54.663 C59.52,52.352 57.612,50.583 55.241,49.872 L42,46.715 L42,38.432 C39.159,42.829 35.284,44.905 32,45.999 C28.719,44.905 24.842,42.842 22,38.455 L22,49 C22,49 24,53 32,53 L32,64 L64,64 L64,64 Z" id="Shape" fill="#BBE7F2"></path>
                    <path d="M42,46.715 L47,47.907 L47,30.781 C46.431,31.356 45.718,31.771 44.822,31.926 C44.122,34.537 43.143,36.673 42,38.438 L42,46.715 L42,46.715 Z" id="Shape" fill="#0C333D"></path>
                    <path d="M22,38.456 L22,46.716 L8.759,49.873 C6.388,50.584 4.48,52.353 3.591,54.664 L0,64 L32,64 L32,46 C28.719,44.906 24.842,42.843 22,38.456 L22,38.456 Z" id="Shape" fill="#E1F5FA"></path>
                    <path d="M47.025,22.003 C47.025,22.007 47.024,22.013 47.024,22.018 C45.493,22.431 38.261,20.554 38.011,5.768 C36.367,5.272 34.387,5 32,5 C19.024,5 18.018,12.971 18,21.979 C18,38.777 26,44 32,46 C36.604,44.465 42.38,41.027 44.822,31.925 C48.136,31.353 49,27.312 49,24.222 C49,23.121 48.017,22.021 47.025,22.003 L47.025,22.003 Z" id="Shape" fill="#E1F5FA"></path>
                    <path d="M60.409,54.663 C59.824,53.141 58.79,51.863 57.479,50.957 C55.021,55.543 44.102,59 31,59 C18.943,59 8.736,56.073 5.268,52.033 C4.553,52.786 3.973,53.67 3.591,54.663 L0,64 L32,64 L64,64 L60.409,54.663 L60.409,54.663 Z" id="Shape" fill="#009FC7"></path>
                    <path d="M32,5 C19.024,5 18.018,12.971 18,21.979 C18,38.777 26,44 32,46 L32,5 L32,5 Z" id="Shape" fill="#FFFFFF"></path>
                    <path d="M29,24 C29,22.896 28.104,22 27,22 L26.994,22 C26.995,22.021 27,22.042 27,22.062 C27,23.164 26.108,24.058 25.006,24.061 C25.04,25.137 25.917,26 27,26 C28.104,26 29,25.104 29,24 L29,24 Z" id="Shape" fill="#0C333D"></path>
                    <path d="M38.994,24 C38.994,22.896 38.098,22 36.994,22 L36.988,22 C36.989,22.021 36.994,22.041 36.994,22.062 C36.994,23.164 36.102,24.058 35,24.061 C35.033,25.137 35.91,26 36.994,26 C38.098,26 38.994,25.104 38.994,24 L38.994,24 Z" id="Shape" fill="#0C333D"></path>
                    <path d="M27,35 L37,35 C37,35 37,38 32,38 C27,38 27,35 27,35 L27,35 Z" id="Shape" fill="#53BAD4"></path>
                    <path d="M14,16 L14,62 C14,62 25,56 25,37.707 L25,22 C25,6.012 39,14 38,5 C38,-3 14,1 14,16 L14,16 Z" id="Shape" fill="#0C333D"></path>
                    <path d="M38,5.066 C38.025,20.505 45.469,22.438 47.024,22.019 C47.024,18.766 49.148,5.043 38.066,5 C38.031,5 38,5.031 38,5.066 L38,5.066 Z" id="Shape" fill="#0C333D"></path>
                    <path d="M46.347,33 L47.874,36.687 C48.13,37.305 47.989,38.016 47.516,38.488 C46.87,39.134 45.824,39.134 45.179,38.488 C44.706,38.015 44.565,37.304 44.821,36.687 L46.347,33 L46.347,33 Z" id="Shape" fill="#FFFFFF"></path>
                </g>
            </g>
        </g>
    </g>
</svg>